<svg xmlns="http://www.w3.org/2000/svg" width="15.301" height="20.402" viewBox="0 0 15.301 20.402">
  <path id="golf-flag" d="M71.232,3.863,62.729.827V.638a.638.638,0,1,0-1.275,0s0,.674,0,.675v15.9a.638.638,0,1,0,1.275,0v-.638c3.346,0,5.1.948,5.1,1.275s-1.754,1.275-5.1,1.275-5.1-.948-5.1-1.275c0-.23.881-.759,2.55-1.058v-1.3c-2.108.33-3.825,1.095-3.825,2.357,0,1.752,3.3,2.55,6.375,2.55s6.375-.8,6.375-2.55-3.3-2.55-6.375-2.55V9.32L71.3,5.033a.637.637,0,0,0-.071-1.17Zm-8.5,4.031V2.18L69.4,4.561Z" transform="translate(-56.354)" fill="#fff"/>
</svg>
